<?xml version="1.0" standalone="no"?>
<!DOCTYPE svg PUBLIC "-//W3C//DTD SVG 20010904//EN"
 "http://www.w3.org/TR/2001/REC-SVG-20010904/DTD/svg10.dtd">
<svg version="1.0" xmlns="http://www.w3.org/2000/svg"
 width="700.000000pt" height="700.000000pt" viewBox="0 0 700.000000 700.000000"
 preserveAspectRatio="xMidYMid meet">
<metadata>
Created by potrace 1.11, written by Peter Selinger 2001-2013
</metadata>
<g transform="translate(0.000000,700.000000) scale(0.100000,-0.100000)"
fill="#000000" stroke="none">
<path d="M2838 6286 c-1 -2 -43 -6 -93 -10 -49 -3 -101 -8 -115 -11 -38 -7
-122 -25 -146 -30 -93 -21 -268 -91 -369 -148 -270 -152 -429 -351 -533 -667
-31 -93 -47 -155 -58 -226 -3 -20 -8 -46 -10 -58 -9 -46 -18 -197 -18 -311 0
-164 10 -295 34 -420 24 -122 38 -167 118 -375 51 -135 66 -178 78 -225 15
-66 54 -286 59 -340 4 -38 9 -79 11 -90 15 -81 23 -474 12 -604 -7 -76 -40
-201 -73 -276 -32 -70 -126 -341 -145 -414 -27 -105 -27 -222 0 -294 22 -60
89 -140 159 -191 111 -81 427 -228 657 -305 161 -54 347 -100 470 -117 27 -3
51 -7 54 -9 3 -2 34 -6 70 -10 36 -4 74 -9 84 -11 104 -20 565 -23 676 -5 195
32 375 94 459 158 56 43 63 70 86 326 33 369 60 522 114 641 64 141 276 469
582 901 525 741 729 1042 801 1181 26 49 60 130 76 180 26 77 34 116 48 219 5
40 4 261 -1 310 -46 387 -227 608 -559 682 -117 25 -324 21 -476 -11 -69 -14
-134 -28 -145 -31 -17 -5 -25 2 -42 39 -46 94 -126 160 -234 191 -84 24 -79
23 -341 30 -397 10 -377 5 -758 187 -198 95 -291 124 -428 134 -43 3 -82 7
-89 9 -6 2 -13 2 -15 1z m197 -101 c76 -15 161 -42 285 -92 149 -60 224 -99
264 -139 l26 -27 -67 -34 c-93 -48 -152 -93 -224 -171 -176 -192 -301 -472
-344 -772 -3 -25 -8 -119 -10 -210 -4 -178 3 -221 46 -266 29 -31 39 -30 32 4
-8 39 -7 346 1 420 4 34 11 86 17 115 5 29 12 64 14 78 6 46 46 181 75 255
103 259 256 423 470 503 200 75 451 92 679 46 168 -33 319 -140 380 -269 54
-114 65 -174 65 -361 0 -303 -31 -379 -314 -785 -95 -137 -155 -238 -147 -247
12 -11 103 52 167 116 116 117 245 337 318 546 l36 100 1 245 c2 233 3 247 25
293 48 100 183 158 380 162 238 5 414 -116 524 -358 71 -156 110 -437 84 -595
-14 -81 -67 -248 -113 -358 -101 -236 -515 -883 -761 -1189 -52 -66 -108 -135
-122 -154 -224 -288 -349 -366 -443 -275 -68 65 -59 85 267 589 100 155 147
235 141 241 -3 3 -39 -27 -79 -68 -58 -57 -96 -109 -173 -238 -110 -185 -140
-227 -205 -287 -72 -68 -119 -87 -201 -81 -123 9 -241 84 -281 178 -39 90 -6
263 83 443 45 91 48 101 16 67 -45 -50 -65 -87 -105 -195 -53 -146 -61 -163
-96 -212 -54 -78 -134 -97 -276 -64 -25 5 -57 12 -71 14 -69 13 -208 52 -240
68 -53 26 -89 73 -90 117 -7 307 -13 372 -43 512 l-14 65 2 -155 c2 -241 -15
-370 -58 -435 -29 -45 -90 -67 -198 -72 -117 -7 -205 13 -267 58 -40 29 -47
50 -56 169 -5 57 -19 216 -21 223 -1 4 -2 28 -3 53 0 25 -5 43 -10 40 -10 -6
-17 -56 -26 -176 -12 -158 -18 -196 -38 -238 -33 -72 -138 -132 -200 -117 -27
7 -62 63 -71 115 -3 19 -8 105 -11 190 -7 212 -17 290 -52 435 -3 11 -8 36
-13 55 -12 52 -40 154 -45 165 -3 6 -3 -15 0 -45 9 -117 17 -196 20 -220 2
-14 7 -70 11 -125 3 -55 8 -120 10 -145 5 -75 5 -273 -1 -305 -12 -60 -25
-100 -41 -123 -15 -22 -17 -22 -35 -6 -22 20 -51 109 -68 207 -17 105 -30 188
-37 237 -11 87 -35 177 -104 382 -123 366 -141 470 -135 758 4 200 5 207 24
301 7 31 14 69 17 85 10 57 74 245 110 321 124 262 328 446 624 563 64 25 223
67 288 76 26 3 49 8 50 9 6 6 325 -3 357 -10z m-335 -2980 c47 -3 105 -7 130
-10 25 -2 72 -7 105 -10 65 -7 86 -9 220 -31 112 -17 107 -16 240 -49 230 -56
379 -114 665 -256 289 -144 355 -189 384 -260 20 -50 12 -82 -49 -201 -66
-129 -107 -273 -130 -458 -4 -30 -9 -62 -10 -71 -5 -26 -15 -189 -17 -269 -1
-41 -3 -78 -5 -82 -2 -3 -58 20 -126 52 -320 153 -765 292 -1067 335 -25 3
-52 8 -60 10 -8 3 -33 7 -55 9 -22 3 -56 7 -75 10 -19 3 -62 8 -95 11 -33 3
-79 8 -102 11 -117 13 -566 6 -654 -11 -9 -2 -40 -6 -70 -10 -62 -8 -241 -43
-264 -51 -12 -5 -15 2 -15 37 0 76 30 178 148 517 28 78 48 142 46 142 -2 0 0
10 5 23 12 32 21 114 26 252 6 136 12 195 24 228 25 64 127 121 246 137 59 7
387 5 555 -5z m95 -1368 c17 -3 62 -8 100 -12 39 -3 77 -8 85 -10 8 -2 38 -6
65 -10 90 -11 342 -65 447 -96 258 -77 563 -213 649 -291 35 -31 41 -53 21
-77 -33 -39 -222 -104 -382 -132 -117 -20 -430 -16 -555 6 -16 3 -55 10 -85
15 -54 10 -84 16 -125 24 -147 32 -598 182 -710 237 -147 71 -207 157 -171
243 18 44 70 82 137 100 42 12 101 14 274 11 121 -2 234 -6 250 -8z"/>
<path d="M2731 5859 c-69 -27 -191 -146 -245 -239 -82 -141 -121 -272 -114
-391 5 -91 23 -124 33 -63 53 311 212 563 419 664 44 22 79 40 76 40 -94 10
-119 8 -169 -11z"/>
<path d="M5238 5338 c25 -32 84 -246 89 -324 7 -110 -8 -188 -77 -391 -32 -95
-55 -173 -52 -173 15 1 85 103 112 164 51 112 72 215 72 351 0 134 -11 193
-47 265 -27 54 -81 120 -97 120 -7 0 -7 -4 0 -12z"/>
</g>
</svg>
